<?xml version="1.0" encoding="UTF-8" standalone="no"?>
<svg
   viewBox="0 0 1667.0751 1200"
   version="1.1"
   id="svg20"
   width="1667.0751"
   height="1200"
   sodipodi:docname="qobuz.svg"
   inkscape:version="1.3.2 (091e20e, 2023-11-25)"
   xmlns:inkscape="http://www.inkscape.org/namespaces/inkscape"
   xmlns:sodipodi="http://sodipodi.sourceforge.net/DTD/sodipodi-0.dtd"
   xmlns="http://www.w3.org/2000/svg"
   xmlns:svg="http://www.w3.org/2000/svg">
  <sodipodi:namedview
     id="namedview1"
     pagecolor="#ffffff"
     bordercolor="#999999"
     borderopacity="1"
     inkscape:showpageshadow="2"
     inkscape:pageopacity="0"
     inkscape:pagecheckerboard="0"
     inkscape:deskcolor="#d1d1d1"
     inkscape:zoom="0.2980402"
     inkscape:cx="645.88603"
     inkscape:cy="746.54359"
     inkscape:window-width="1512"
     inkscape:window-height="916"
     inkscape:window-x="0"
     inkscape:window-y="38"
     inkscape:window-maximized="0"
     inkscape:current-layer="svg20" />
  <defs
     id="defs1">
    <style
       id="style1">.cls-1{fill:#fff;}</style>
  </defs>
  <g
     id="g2"
     transform="translate(0,269.35783)">
    <g
       id="g1">
      <g
         id="Calque_2"
         data-name="Calque 2"
         transform="matrix(2.3,0,0,2.3,0.046,0)">
        <g
           id="Calque_1-2"
           data-name="Calque 1">
          <path
             class="cls-1"
             d="m 713.1,192.21 h -60.21 l 68.42,-91.49 A 18.18,18.18 0 0 0 707,71.84 v 0 h -73.38 c -7,0 -13.09,5.66 -13.09,12.65 a 12.64,12.64 0 0 0 12.65,12.64 2.81,2.81 0 0 0 0.29,0 h 59 l -68.27,91.21 a 18.22,18.22 0 0 0 14.53,29.18 h 74.37 c 6.43,0 11.64,-5.67 11.64,-12.66 0,-6.99 -5.21,-12.65 -11.64,-12.65 z"
             id="path1"
             style="fill:#8d697a;fill-opacity:1" />
          <path
             class="cls-1"
             d="m 604.46,83.71 a 0.61,0.61 0 0 0 0,-0.14 12.65,12.65 0 1 0 -25.3,0 c 0,0.05 0,0.1 0,0.15 0,4.21 0,67.65 0,76.46 0,20.57 -12.46,31.69 -34.43,31.69 C 522.76,191.87 509,180.6 509,160 V 83.92 c 0,0 0,-0.1 0,-0.15 0,-0.05 0,-0.09 0,-0.14 v -0.14 0 a 12.64,12.64 0 0 0 -25.27,0 v 0 0.14 c 0,0.05 0,0.1 0,0.14 0,0.04 0,0.1 0,0.15 v 76.26 c 0,31.48 27.48,57 61.1,57 33.62,0 59.75,-25.51 59.75,-57 -0.06,-8.27 -0.11,-72.28 -0.12,-76.47 z"
             id="path2"
             style="fill:#8d697a;fill-opacity:1" />
          <path
             class="cls-1"
             d="M 394.7,70.56 A 72.64,72.64 0 0 0 356.53,81.33 V 115 A 47.69,47.69 0 1 1 347,143.54 v 0 -130.89 a 12.65,12.65 0 1 0 -25.3,0 c 0,0 0,0.1 0,0.15 v 130.74 a 73,73 0 1 0 73,-73 z"
             id="path3"
             style="fill:#8d697a;fill-opacity:1" />
          <path
             class="cls-1"
             d="m 234,70.65 a 73,73 0 1 0 73,73 73,73 0 0 0 -73,-73 z m 0,120.67 A 47.69,47.69 0 1 1 281.67,143.64 47.68,47.68 0 0 1 234,191.32 Z"
             id="path4"
             style="fill:#8d697a;fill-opacity:1" />
          <path
             class="cls-1"
             d="m 73,216.59 a 72.59,72.59 0 0 0 38.16,-10.78 v -33.62 a 47.69,47.69 0 1 1 9.51,-28.58 v 0 130.74 c 0,0 0,0.09 0,0.14 a 12.66,12.66 0 1 0 25.31,0 c 0,-0.05 0,-0.09 0,-0.14 V 143.61 a 73,73 0 1 0 -73,73 z"
             id="path5"
             style="fill:#8d697a;fill-opacity:1" />
          <path
             class="cls-1"
             d="m 170.92,286.89 v -30.44 h 10.89 a 10.52,10.52 0 0 1 7.44,2.6 8.81,8.81 0 0 1 2.81,6.76 9.19,9.19 0 0 1 -6.1,8.79 l 6.93,12.29 h -5.31 l -6.22,-11.59 h -5.75 v 11.59 z m 4.69,-15.64 h 6 a 5.86,5.86 0 0 0 4.06,-1.4 5.81,5.81 0 0 0 0,-7.85 5.85,5.85 0 0 0 -4.26,-1.49 h -5.79 z"
             id="path6"
             style="fill:#8d697a;fill-opacity:1" />
          <path
             class="cls-1"
             d="m 207.16,286.89 v -30.44 h 18 v 4.14 h -13.31 v 8.85 h 11.44 v 4.06 h -11.44 v 9.25 h 13.79 v 4.14 z"
             id="path7"
             style="fill:#8d697a;fill-opacity:1" />
          <path
             class="cls-1"
             d="m 240.22,286.89 v -30.44 h 9.65 a 16.77,16.77 0 0 1 8.27,1.95 13.08,13.08 0 0 1 5.32,5.36 16.5,16.5 0 0 1 1.8,7.85 q 0,7.11 -4.08,11.2 -4.08,4.09 -11.31,4.08 z m 4.69,-4.14 h 4.88 a 10.63,10.63 0 0 0 7.77,-2.88 c 1.95,-1.92 2.92,-4.68 2.92,-8.26 0,-3.58 -1,-6.18 -2.91,-8.12 a 10.57,10.57 0 0 0 -7.78,-2.9 h -4.88 z"
             id="path8"
             style="fill:#8d697a;fill-opacity:1" />
          <path
             class="cls-1"
             d="m 279.19,286.89 v -30.44 h 4.69 v 30.44 z"
             id="path9"
             style="fill:#8d697a;fill-opacity:1" />
          <path
             class="cls-1"
             d="m 298.14,277.55 h 4.56 a 5.23,5.23 0 0 0 1.9,4 8.52,8.52 0 0 0 9.33,0.42 3.77,3.77 0 0 0 1.65,-3.23 4.26,4.26 0 0 0 -0.56,-2.26 4.1,4.1 0 0 0 -1.53,-1.48 9.11,9.11 0 0 0 -2.2,-0.88 l -2.61,-0.71 -2.73,-0.73 a 13.75,13.75 0 0 1 -2.59,-1 9.27,9.27 0 0 1 -2.19,-1.54 6.25,6.25 0 0 1 -1.51,-2.4 9.6,9.6 0 0 1 -0.57,-3.45 7.68,7.68 0 0 1 2.76,-6 10.86,10.86 0 0 1 7.44,-2.43 13.29,13.29 0 0 1 3.81,0.55 11.17,11.17 0 0 1 3.32,1.63 7.67,7.67 0 0 1 2.4,2.86 9.15,9.15 0 0 1 0.92,4.09 H 315 a 4.68,4.68 0 0 0 -1.49,-3.65 6.15,6.15 0 0 0 -4.23,-1.34 6,6 0 0 0 -4.06,1.23 3.83,3.83 0 0 0 -1.41,3 3.56,3.56 0 0 0 0.57,2 3.82,3.82 0 0 0 1.5,1.34 10.65,10.65 0 0 0 2.19,0.84 l 2.62,0.71 2.76,0.74 a 13,13 0 0 1 2.64,1 9.35,9.35 0 0 1 2.2,1.58 6.45,6.45 0 0 1 1.53,2.42 9.75,9.75 0 0 1 0.57,3.47 8.15,8.15 0 0 1 -2.95,6.48 13.55,13.55 0 0 1 -16.11,-0.23 9,9 0 0 1 -3.19,-7.03 z"
             id="path10"
             style="fill:#8d697a;fill-opacity:1" />
          <path
             class="cls-1"
             d="m 333,271.67 a 16.22,16.22 0 0 1 1.19,-6.23 15.15,15.15 0 0 1 3.27,-5 15,15 0 0 1 5,-3.31 16.49,16.49 0 0 1 6.31,-1.21 15,15 0 0 1 9.35,3 14.47,14.47 0 0 1 5.25,7.86 h -5.05 a 8.74,8.74 0 0 0 -3.59,-4.69 10.54,10.54 0 0 0 -6,-1.7 10.77,10.77 0 0 0 -5.56,1.47 10.49,10.49 0 0 0 -3.93,4.08 11.81,11.81 0 0 0 -1.42,5.78 11.22,11.22 0 0 0 3.18,8.08 10.4,10.4 0 0 0 7.79,3.23 10.59,10.59 0 0 0 5.94,-1.68 8.92,8.92 0 0 0 3.61,-4.67 h 5.14 a 14,14 0 0 1 -5.26,7.83 15.31,15.31 0 0 1 -9.43,2.95 16.66,16.66 0 0 1 -6.33,-1.2 14.66,14.66 0 0 1 -5,-3.29 15,15 0 0 1 -3.26,-5 16.37,16.37 0 0 1 -1.2,-6.3 z"
             id="path11"
             style="fill:#8d697a;fill-opacity:1" />
          <path
             class="cls-1"
             d="m 376.18,271.67 a 16.39,16.39 0 0 1 0.78,-5.07 14.85,14.85 0 0 1 2.2,-4.35 16.17,16.17 0 0 1 3.39,-3.37 15,15 0 0 1 4.4,-2.2 16.91,16.91 0 0 1 5.15,-0.78 16.11,16.11 0 0 1 8.12,2.08 14.87,14.87 0 0 1 5.66,5.69 16.07,16.07 0 0 1 2,8 16.46,16.46 0 0 1 -1.19,6.24 15.15,15.15 0 0 1 -3.29,5 15.38,15.38 0 0 1 -5.05,3.31 16.43,16.43 0 0 1 -6.32,1.22 16.66,16.66 0 0 1 -6.33,-1.2 15.08,15.08 0 0 1 -5,-3.29 15.27,15.27 0 0 1 -3.3,-5 16.44,16.44 0 0 1 -1.22,-6.28 z m 4.88,0 a 11.23,11.23 0 0 0 3.13,8.13 11.3,11.3 0 0 0 15.82,0 11.23,11.23 0 0 0 3.13,-8.13 11.75,11.75 0 0 0 -1.42,-5.77 10.38,10.38 0 0 0 -3.94,-4.08 11.64,11.64 0 0 0 -11.36,0 10.47,10.47 0 0 0 -3.95,4.08 11.85,11.85 0 0 0 -1.41,5.77 z"
             id="path12"
             style="fill:#8d697a;fill-opacity:1" />
          <path
             class="cls-1"
             d="m 419.21,256.45 h 5.08 l 8.57,24.71 h 0.26 l 8.7,-24.71 H 447 l -11.4,30.44 h -5.18 z"
             id="path13"
             style="fill:#8d697a;fill-opacity:1" />
          <path
             class="cls-1"
             d="m 460.32,286.89 v -30.44 h 18 v 4.14 H 465 v 8.85 h 11.44 v 4.06 H 465 v 9.25 h 13.8 v 4.14 z"
             id="path14"
             style="fill:#8d697a;fill-opacity:1" />
          <path
             class="cls-1"
             d="m 493.37,286.89 v -30.44 h 10.89 a 10.52,10.52 0 0 1 7.44,2.6 8.78,8.78 0 0 1 2.81,6.76 9.2,9.2 0 0 1 -6.09,8.79 l 6.92,12.29 H 510 l -6.22,-11.59 h -5.76 v 11.59 z m 4.69,-15.64 h 6 a 5.81,5.81 0 0 0 4.05,-1.4 5.78,5.78 0 0 0 0,-7.85 5.82,5.82 0 0 0 -4.25,-1.49 h -5.8 z"
             id="path15"
             style="fill:#8d697a;fill-opacity:1" />
          <path
             class="cls-1"
             d="m 550.13,286.89 v -30.44 h 5.52 L 566.21,281 h 0.25 l 9.65,-24.52 h 5.47 v 30.44 H 577 v -20.85 h -0.26 l -8.24,20.82 H 564 l -9,-21 h -0.28 v 21 z"
             id="path16"
             style="fill:#8d697a;fill-opacity:1" />
          <path
             class="cls-1"
             d="m 597.56,275.77 v -19.32 h 4.69 v 19.27 a 7.69,7.69 0 0 0 1.81,5.43 7.93,7.93 0 0 0 10.45,0 7.74,7.74 0 0 0 1.83,-5.46 V 256.45 H 621 v 19.27 a 11.69,11.69 0 0 1 -3.16,8.53 11.5,11.5 0 0 1 -8.58,3.21 q -5.47,0 -8.6,-3.18 a 11.6,11.6 0 0 1 -3.1,-8.51 z"
             id="path17"
             style="fill:#8d697a;fill-opacity:1" />
          <path
             class="cls-1"
             d="m 634.84,277.55 h 4.56 a 5.23,5.23 0 0 0 1.9,4 7.27,7.27 0 0 0 4.94,1.61 7.36,7.36 0 0 0 4.39,-1.19 3.77,3.77 0 0 0 1.65,-3.23 4.35,4.35 0 0 0 -0.56,-2.26 4.1,4.1 0 0 0 -1.53,-1.48 9.11,9.11 0 0 0 -2.2,-0.88 l -2.61,-0.71 -2.73,-0.73 a 13.49,13.49 0 0 1 -2.59,-1 9.27,9.27 0 0 1 -2.19,-1.54 6.27,6.27 0 0 1 -1.52,-2.4 9.83,9.83 0 0 1 -0.56,-3.45 7.68,7.68 0 0 1 2.76,-6 10.86,10.86 0 0 1 7.45,-2.39 13.29,13.29 0 0 1 3.81,0.55 11.29,11.29 0 0 1 3.32,1.63 7.67,7.67 0 0 1 2.4,2.86 9.15,9.15 0 0 1 0.92,4.09 h -4.77 a 4.66,4.66 0 0 0 -1.5,-3.65 6.11,6.11 0 0 0 -4.18,-1.38 6,6 0 0 0 -4.06,1.23 3.83,3.83 0 0 0 -1.41,3 3.63,3.63 0 0 0 0.56,2 4,4 0 0 0 1.5,1.34 11,11 0 0 0 2.2,0.84 l 2.62,0.71 2.75,0.74 a 12.89,12.89 0 0 1 2.65,1 9.56,9.56 0 0 1 2.2,1.58 6.56,6.56 0 0 1 1.52,2.42 9.52,9.52 0 0 1 0.58,3.47 8.18,8.18 0 0 1 -2.95,6.48 q -2.94,2.54 -8,2.54 a 11.77,11.77 0 0 1 -8.07,-2.77 9,9 0 0 1 -3.25,-7.03 z"
             id="path18"
             style="fill:#8d697a;fill-opacity:1" />
          <path
             class="cls-1"
             d="m 671.54,286.89 v -30.44 h 4.69 v 30.44 z"
             id="path19"
             style="fill:#8d697a;fill-opacity:1" />
          <path
             class="cls-1"
             d="m 690.13,271.67 a 16.22,16.22 0 0 1 1.19,-6.23 15.28,15.28 0 0 1 3.26,-5 15.09,15.09 0 0 1 5,-3.31 16.58,16.58 0 0 1 6.32,-1.21 15,15 0 0 1 9.35,3 14.52,14.52 0 0 1 5.25,7.86 h -5 a 8.74,8.74 0 0 0 -3.59,-4.69 10.54,10.54 0 0 0 -6,-1.7 10.77,10.77 0 0 0 -5.56,1.47 10.49,10.49 0 0 0 -3.93,4.08 11.81,11.81 0 0 0 -1.42,5.78 11.22,11.22 0 0 0 3.12,8.13 10.39,10.39 0 0 0 7.79,3.23 10.59,10.59 0 0 0 5.94,-1.68 8.92,8.92 0 0 0 3.61,-4.67 h 5.13 a 13.93,13.93 0 0 1 -5.25,7.83 15.31,15.31 0 0 1 -9.43,2.95 16.66,16.66 0 0 1 -6.33,-1.2 14.8,14.8 0 0 1 -5,-3.29 15,15 0 0 1 -3.25,-5 16.37,16.37 0 0 1 -1.2,-6.35 z"
             id="path20"
             style="fill:#8d697a;fill-opacity:1" />
        </g>
      </g>
    </g>
  </g>
</svg>
